<svg xmlns="http://www.w3.org/2000/svg" viewBox="0 0 256 256" width="256" height="256" fill="none">
  <title>BubuStack logo</title>
  <desc>B for BubuStack.</desc>

  <defs>
    <linearGradient id="g" x1="52" y1="36" x2="188" y2="220" gradientUnits="userSpaceOnUse">
      <stop offset="0" stop-color="#8B5CF6"/>
      <stop offset="1" stop-color="#22D3EE"/>
    </linearGradient>
    <style>
      .link { stroke: url(#g); stroke-width: 24; stroke-linecap: round; stroke-linejoin: round; }
      .node { fill: #ffffff; stroke: url(#g); stroke-width: 14; }
    </style>
  </defs>

  <path class="link" d="M70 42V214"/>
  <path class="link" d="M70 42C118 42 156 48 171 73C181 90 177 110 156 120C140 128 114 128 70 128"/>
  <path class="link" d="M70 128C119 128 157 133 174 153C188 170 183 194 158 206C141 214 114 214 70 214"/>

  <rect class="node" x="56" y="28" width="28" height="28" rx="4"/>
  <rect class="node" x="56" y="114" width="28" height="28" rx="4"/>
  <rect class="node" x="56" y="200" width="28" height="28" rx="4"/>
  <rect class="node" x="110" y="116" width="28" height="28" rx="4"/>
</svg>
